<svg id="visual" viewBox="0 0 900 600" width="900" height="600" xmlns="http://www.w3.org/2000/svg" xmlns:xlink="http://www.w3.org/1999/xlink" version="1.1"><path d="M0 133L13.7 123C27.3 113 54.7 93 82 87C109.3 81 136.7 89 163.8 95C191 101 218 105 245.2 108C272.3 111 299.7 113 327 111C354.3 109 381.7 103 409 97C436.3 91 463.7 85 491 78C518.3 71 545.7 63 573 64C600.3 65 627.7 75 654.8 74C682 73 709 61 736.2 60C763.3 59 790.7 69 818 79C845.3 89 872.7 99 886.3 104L900 109L900 0L886.3 0C872.7 0 845.3 0 818 0C790.7 0 763.3 0 736.2 0C709 0 682 0 654.8 0C627.7 0 600.3 0 573 0C545.7 0 518.3 0 491 0C463.7 0 436.3 0 409 0C381.7 0 354.3 0 327 0C299.7 0 272.3 0 245.2 0C218 0 191 0 163.8 0C136.7 0 109.3 0 82 0C54.7 0 27.3 0 13.7 0L0 0Z" fill="#004cbb"></path><path d="M0 229L13.7 228C27.3 227 54.7 225 82 216C109.3 207 136.7 191 163.8 196C191 201 218 227 245.2 226C272.3 225 299.7 197 327 192C354.3 187 381.7 205 409 208C436.3 211 463.7 199 491 199C518.3 199 545.7 211 573 217C600.3 223 627.7 223 654.8 210C682 197 709 171 736.2 170C763.3 169 790.7 193 818 207C845.3 221 872.7 225 886.3 227L900 229L900 107L886.3 102C872.7 97 845.3 87 818 77C790.7 67 763.3 57 736.2 58C709 59 682 71 654.8 72C627.7 73 600.3 63 573 62C545.7 61 518.3 69 491 76C463.7 83 436.3 89 409 95C381.7 101 354.3 107 327 109C299.7 111 272.3 109 245.2 106C218 103 191 99 163.8 93C136.7 87 109.3 79 82 85C54.7 91 27.3 111 13.7 121L0 131Z" fill="#2573ff"></path><path d="M0 373L13.7 371C27.3 369 54.7 365 82 354C109.3 343 136.7 325 163.8 335C191 345 218 383 245.2 394C272.3 405 299.7 389 327 371C354.3 353 381.7 333 409 326C436.3 319 463.7 325 491 343C518.3 361 545.7 391 573 387C600.3 383 627.7 345 654.8 334C682 323 709 339 736.2 341C763.3 343 790.7 331 818 340C845.3 349 872.7 379 886.3 394L900 409L900 227L886.3 225C872.7 223 845.3 219 818 205C790.7 191 763.3 167 736.2 168C709 169 682 195 654.8 208C627.7 221 600.3 221 573 215C545.7 209 518.3 197 491 197C463.7 197 436.3 209 409 206C381.7 203 354.3 185 327 190C299.7 195 272.3 223 245.2 224C218 225 191 199 163.8 194C136.7 189 109.3 205 82 214C54.7 223 27.3 225 13.7 226L0 227Z" fill="#6198ff"></path><path d="M0 421L13.7 424C27.3 427 54.7 433 82 423C109.3 413 136.7 387 163.8 398C191 409 218 457 245.2 471C272.3 485 299.7 465 327 443C354.3 421 381.7 397 409 387C436.3 377 463.7 381 491 399C518.3 417 545.7 449 573 449C600.3 449 627.7 417 654.8 402C682 387 709 389 736.2 389C763.3 389 790.7 387 818 407C845.3 427 872.7 469 886.3 490L900 511L900 407L886.3 392C872.7 377 845.3 347 818 338C790.7 329 763.3 341 736.2 339C709 337 682 321 654.8 332C627.7 343 600.3 381 573 385C545.7 389 518.3 359 491 341C463.7 323 436.3 317 409 324C381.7 331 354.3 351 327 369C299.7 387 272.3 403 245.2 392C218 381 191 343 163.8 333C136.7 323 109.3 341 82 352C54.7 363 27.3 367 13.7 369L0 371Z" fill="#2573ff"></path><path d="M0 601L13.7 601C27.3 601 54.7 601 82 601C109.3 601 136.7 601 163.8 601C191 601 218 601 245.2 601C272.3 601 299.7 601 327 601C354.3 601 381.7 601 409 601C436.3 601 463.7 601 491 601C518.3 601 545.7 601 573 601C600.3 601 627.7 601 654.8 601C682 601 709 601 736.2 601C763.3 601 790.7 601 818 601C845.3 601 872.7 601 886.3 601L900 601L900 509L886.3 488C872.7 467 845.3 425 818 405C790.7 385 763.3 387 736.2 387C709 387 682 385 654.8 400C627.7 415 600.3 447 573 447C545.7 447 518.3 415 491 397C463.7 379 436.3 375 409 385C381.7 395 354.3 419 327 441C299.7 463 272.3 483 245.2 469C218 455 191 407 163.8 396C136.7 385 109.3 411 82 421C54.7 431 27.3 425 13.7 422L0 419Z" fill="#004cbb"></path></svg>